<?xml version="1.0" encoding="UTF-8"?>
<svg version="1.1" xmlns="http://www.w3.org/2000/svg" width="285" height="116">
<path d="M0 0 C94.05 0 188.1 0 285 0 C285 38.28 285 76.56 285 116 C190.95 116 96.9 116 0 116 C0 77.72 0 39.44 0 0 Z " fill="#FDFDFD" transform="translate(0,0)"/>
<path d="M0 0 C6.02836604 3.17696013 11.03214103 7.19271443 14.0625 13.375 C14.31439935 16.17117302 14.41381501 18.73190815 14.35546875 21.51953125 C14.35122391 22.28931808 14.34697906 23.05910492 14.34260559 23.85221863 C14.32588597 26.29767646 14.2882477 28.74229357 14.25 31.1875 C14.23494441 32.85089951 14.22125754 34.51431201 14.20898438 36.17773438 C14.17600465 40.24381082 14.12427006 44.30926313 14.0625 48.375 C11.7525 48.375 9.4425 48.375 7.0625 48.375 C6.5675 46.395 6.5675 46.395 6.0625 44.375 C4.70318359 44.91640625 4.70318359 44.91640625 3.31640625 45.46875 C-12.60100609 51.53252613 -12.60100609 51.53252613 -21.1875 47.75 C-25.94564358 45.08126079 -29.18779965 41.62410104 -30.9375 36.375 C-31.52241311 30.40888628 -30.43593062 26.1665468 -26.9375 21.375 C-23.55210711 17.77203688 -20.32395043 16.53574788 -15.43359375 15.96875 C-7.79883246 15.78385164 -1.05121536 16.56299017 6.0625 19.375 C4.83830633 13.57718659 4.83830633 13.57718659 1.4453125 8.921875 C-4.14466817 5.70703633 -9.52293984 4.61961743 -15.9375 5.375 C-17.95276169 6.34387581 -19.95583966 7.3391321 -21.9375 8.375 C-24.3125 8.0625 -24.3125 8.0625 -25.9375 7.375 C-26.2675 5.725 -26.5975 4.075 -26.9375 2.375 C-18.80227359 -2.8315449 -9.0572322 -3.6911323 0 0 Z " fill="#CB9B53" transform="translate(221.9375,29.625)"/>
<path d="M0 0 C2.97 0 5.94 0 9 0 C9 0.66 9 1.32 9 2 C9.66 2 10.32 2 11 2 C11.01981934 2.79696289 11.03963867 3.59392578 11.06005859 4.41503906 C11.15533248 8.02702472 11.26500307 11.63843399 11.375 15.25 C11.4059375 16.50425781 11.436875 17.75851563 11.46875 19.05078125 C11.50742188 20.25605469 11.54609375 21.46132813 11.5859375 22.703125 C11.6173584 23.81333008 11.6487793 24.92353516 11.68115234 26.06738281 C11.99410366 28.94576809 12.39859504 30.61303825 14 33 C18.44400266 35.96266844 22.78901077 35.76945894 28 35 C30.89683868 32.7984026 32.39297231 31.21405538 34 28 C34.15441209 25.89625004 34.24992639 23.78804881 34.31640625 21.6796875 C34.37924805 19.79443359 34.37924805 19.79443359 34.44335938 17.87109375 C34.48267578 16.55238281 34.52199219 15.23367187 34.5625 13.875 C34.60569512 12.53514249 34.64930973 11.19529844 34.69335938 9.85546875 C34.79970981 6.57042185 34.90173808 3.28529719 35 0 C38.3 0 41.6 0 45 0 C45.12476245 4.24998477 45.21487534 8.49896494 45.2746582 12.75024414 C45.29961056 14.1924906 45.33358606 15.63461314 45.37719727 17.07641602 C45.62963262 25.64436887 45.70829187 33.02052123 40 40 C36.48110164 43.64415762 33.32060573 45.83492271 28.14453125 46.203125 C13.74624798 46.40567998 13.74624798 46.40567998 7.80859375 41.0078125 C2.00948348 34.84560946 -0.27395737 29.86135312 -0.1953125 21.2890625 C-0.18886719 20.04511719 -0.18242188 18.80117188 -0.17578125 17.51953125 C-0.15902344 16.23433594 -0.14226562 14.94914062 -0.125 13.625 C-0.11597656 12.31660156 -0.10695313 11.00820313 -0.09765625 9.66015625 C-0.07415085 6.4399163 -0.04129087 3.22005293 0 0 Z " fill="#343132" transform="translate(74,32)"/>
<path d="M0 0 C1.29550781 -0.02578125 2.59101562 -0.0515625 3.92578125 -0.078125 C9.14097305 0.3767827 12.40121849 2.39247899 16.6875 5.25 C15.61348892 8.16517292 14.90939824 10.02810176 12.6875 12.25 C9.7449037 11.94347955 7.34207692 11.57728846 4.6875 10.25 C0.04445813 9.68354889 -3.43763117 9.82876686 -7.6875 11.875 C-11.68217893 15.48923332 -13.4331612 18.89440226 -13.75 24.25 C-13.5479953 29.280879 -11.17927945 32.51125188 -7.546875 35.89453125 C-4.66058714 37.6454786 -2.66989992 37.6501805 0.6875 37.625 C2.234375 37.63660156 2.234375 37.63660156 3.8125 37.6484375 C6.97861368 37.20965544 8.35127097 36.37282349 10.6875 34.25 C13.53133123 35.5248209 15.82504018 36.70137078 17.6875 39.25 C17.6875 41.1875 17.6875 41.1875 16.6875 43.25 C10.91981152 48.56234465 5.9319639 48.66817176 -1.6640625 48.58203125 C-8.1766623 47.98934283 -12.82071172 45.7742697 -17.41015625 41.125 C-22.60984396 34.80422973 -24.90202891 29.11662352 -24.6796875 20.90234375 C-23.6883235 13.74132085 -20.26445127 8.64542189 -14.6875 4.1875 C-9.75088051 0.60718723 -6.08030775 0.07216982 0 0 Z " fill="#393838" transform="translate(46.3125,29.75)"/>
<path d="M0 0 C2.97 0 5.94 0 9 0 C9 11.88 9 23.76 9 36 C18.1698291 35.96040482 18.1698291 35.96040482 27.33959961 35.90991211 C28.47405518 35.90741455 29.60851074 35.90491699 30.77734375 35.90234375 C32.52905884 35.89448853 32.52905884 35.89448853 34.31616211 35.88647461 C37 36 37 36 38 37 C38.14115161 39.67058851 38.04247107 42.32432238 38 45 C34.89049471 46.55475264 31.5955297 46.14199524 28.18359375 46.1328125 C27.41193375 46.13376923 26.64027374 46.13472595 25.8452301 46.13571167 C24.21363239 46.13639246 22.58203197 46.1345452 20.95043945 46.13037109 C18.44411179 46.12501413 15.93796275 46.13032319 13.43164062 46.13671875 C11.84895794 46.13605809 10.26627536 46.13477719 8.68359375 46.1328125 C7.92944687 46.13483673 7.17529999 46.13686096 6.39830017 46.13894653 C1.11495624 46.11495624 1.11495624 46.11495624 0 45 C-0.0928726 43.58774954 -0.11746772 42.17091066 -0.11352539 40.75561523 C-0.11344986 39.85475693 -0.11337433 38.95389862 -0.11329651 38.02574158 C-0.10813522 37.04658279 -0.10297394 36.06742401 -0.09765625 35.05859375 C-0.0962413 34.06118668 -0.09482635 33.0637796 -0.09336853 32.03614807 C-0.08775114 28.83656876 -0.07519571 25.63705831 -0.0625 22.4375 C-0.05748724 20.27408955 -0.05292395 18.11067801 -0.04882812 15.94726562 C-0.03777606 10.63148371 -0.02049979 5.31575354 0 0 Z " fill="#2B292A" transform="translate(136,32)"/>
<path d="M0 0 C1.32837891 -0.00193359 1.32837891 -0.00193359 2.68359375 -0.00390625 C3.61558594 -0.00003906 4.54757813 0.00382812 5.5078125 0.0078125 C6.43207031 0.00394531 7.35632813 0.00007813 8.30859375 -0.00390625 C9.64083984 -0.00197266 9.64083984 -0.00197266 11 0 C11.81581543 0.00112793 12.63163086 0.00225586 13.47216797 0.00341797 C15.6328125 0.1328125 15.6328125 0.1328125 18.6328125 1.1328125 C19.69886053 10.64263783 19.69886053 10.64263783 17.1796875 14.1640625 C11.6457429 18.90744358 6.76330236 19.52690688 -0.40625 19.4921875 C-4.85240038 18.9525492 -6.4475078 17.44704352 -9.3671875 14.1328125 C-10.81149605 11.24419541 -10.74407256 9.33633549 -10.3671875 6.1328125 C-7.9296875 3.3203125 -7.9296875 3.3203125 -5.3671875 1.1328125 C-3.78830894 -0.44606606 -2.1865945 0.00303152 0 0 Z " fill="#FCFCFC" transform="translate(209.3671875,52.8671875)"/>
<path d="M0 0 C2.31 0 4.62 0 7 0 C8.30760893 2.61521785 8.11997548 4.53113401 8.11352539 7.45947266 C8.11344986 8.60050446 8.11337433 9.74153625 8.11329651 10.91714478 C8.10813522 12.15362762 8.10297394 13.39011047 8.09765625 14.6640625 C8.0962413 15.92640717 8.09482635 17.18875183 8.09336853 18.48934937 C8.08871078 21.84638299 8.07972408 25.203349 8.06866455 28.56036377 C8.0584377 31.98554906 8.05386818 35.41074134 8.04882812 38.8359375 C8.03778238 45.55731043 8.02103194 52.27865131 8 59 C5.66705225 59.04241723 3.33297433 59.04092937 1 59 C0 58 0 58 -0.12025452 55.67784119 C-0.11803391 54.64969803 -0.11581329 53.62155487 -0.11352539 52.56225586 C-0.11344986 51.40112778 -0.11337433 50.23999969 -0.11329651 49.04368591 C-0.10813522 47.780168 -0.10297394 46.51665009 -0.09765625 45.21484375 C-0.0962413 43.92888809 -0.09482635 42.64293243 -0.09336853 41.31800842 C-0.08954418 37.89356557 -0.07971462 34.46916491 -0.06866455 31.04473877 C-0.05844864 27.55261811 -0.05387053 24.06049066 -0.04882812 20.56835938 C-0.03809227 13.71222222 -0.02101684 6.85611313 0 0 Z " fill="#D5A25A" transform="translate(180,19)"/>
<path d="M0 0 C2.31 0 4.62 0 7 0 C8 1 8 1 8.12025452 2.86659241 C8.1169236 4.08903908 8.1169236 4.08903908 8.11352539 5.33618164 C8.11344986 6.2570607 8.11337433 7.17793976 8.11329651 8.12672424 C8.10813522 9.12775681 8.10297394 10.12878937 8.09765625 11.16015625 C8.0962413 12.17975937 8.09482635 13.19936249 8.09336853 14.24986267 C8.08775097 17.52077107 8.0751955 20.79161213 8.0625 24.0625 C8.05748726 26.27408756 8.05292396 28.48567618 8.04882812 30.69726562 C8.03777584 36.13153357 8.02102063 41.56576197 8 47 C5.36 47 2.72 47 0 47 C0 31.49 0 15.98 0 0 Z " fill="#C39752" transform="translate(240,31)"/>
<path d="M0 0 C0.66 0.33 1.32 0.66 2 1 C2 19.81 2 38.62 2 58 C-0.31 58 -2.62 58 -5 58 C-5 57.34 -5 56.68 -5 56 C-3.35 56 -1.7 56 0 56 C0 37.52 0 19.04 0 0 Z " fill="#8B6B3D" transform="translate(186,20)"/>
<path d="M0 0 C3 3 3 3 3.34057617 6.5534668 C3.34010217 8.0188033 3.32321042 9.48419427 3.29296875 10.94921875 C3.28872391 11.72183548 3.28447906 12.49445221 3.28010559 13.29048157 C3.26332183 15.75650992 3.22567147 18.22171896 3.1875 20.6875 C3.17245271 22.36001423 3.15876438 24.03254128 3.14648438 25.70507812 C3.11341946 29.80370078 3.06164028 33.90171151 3 38 C0.69 38 -1.62 38 -4 38 C-4 37.34 -4 36.68 -4 36 C-2.35 36 -0.7 36 1 36 C0.67 24.12 0.34 12.24 0 0 Z " fill="#8C714E" transform="translate(233,40)"/>
<path d="M0 0 C0.33 0 0.66 0 1 0 C1 7.26 1 14.52 1 22 C0.67 21.01 0.34 20.02 0 19 C-0.66 18.67 -1.32 18.34 -2 18 C-3.35085807 18.63040043 -4.68252676 19.30251417 -6 20 C-7.3242287 20.36784131 -8.65613912 20.71202981 -10 21 C-10.33 20.01 -10.66 19.02 -11 18 C-10.36191406 17.50628906 -9.72382813 17.01257813 -9.06640625 16.50390625 C-8.24011719 15.86324219 -7.41382813 15.22257812 -6.5625 14.5625 C-5.73878906 13.92441406 -4.91507813 13.28632812 -4.06640625 12.62890625 C-1.37474729 10.72884373 -1.37474729 10.72884373 -0.68359375 7.71484375 C-0.60238281 6.79832031 -0.52117187 5.88179687 -0.4375 4.9375 C-0.35371094 4.01839844 -0.26992187 3.09929688 -0.18359375 2.15234375 C-0.12300781 1.44207031 -0.06242188 0.73179688 0 0 Z " fill="#CA9952" transform="translate(228,55)"/>
<path d="M0 0 C0.66 0.33 1.32 0.66 2 1 C-3.88220435 6.50270729 -10.88887197 8.55645923 -18.84765625 8.3046875 C-22.26509948 7.82091151 -24.93545927 6.56487186 -28 5 C-28 4.34 -28 3.68 -28 3 C-27.01 3.33 -26.02 3.66 -25 4 C-21.90067364 4.27574078 -18.7977687 4.27728941 -15.6875 4.3125 C-14.42389648 4.35600586 -14.42389648 4.35600586 -13.13476562 4.40039062 C-7.42639411 4.4584116 -4.42016131 3.65582673 0 0 Z " fill="#897252" transform="translate(226,71)"/>
<path d="M0 0 C0.33 0 0.66 0 1 0 C1 7.26 1 14.52 1 22 C0.67 21.01 0.34 20.02 0 19 C-0.66 18.67 -1.32 18.34 -2 18 C-1.67 16.35 -1.34 14.7 -1 13 C-1.66 12.67 -2.32 12.34 -3 12 C-2.34 11.34 -1.68 10.68 -1 10 C-0.53837573 7.56747339 -0.53837573 7.56747339 -0.375 4.875 C-0.30023438 3.96492188 -0.22546875 3.05484375 -0.1484375 2.1171875 C-0.09945312 1.41851562 -0.05046875 0.71984375 0 0 Z " fill="#D8BF9C" transform="translate(228,55)"/>
<path d="M0 0 C0.66 0.33 1.32 0.66 2 1 C-0.64 3.64 -3.28 6.28 -6 9 C-6 5.06368636 -4.57142871 3.87394974 -2 1 C-1.34 0.67 -0.68 0.34 0 0 Z " fill="#DCDCDC" transform="translate(40,40)"/>
<path d="M0 0 C1.05960938 0.00676758 1.05960938 0.00676758 2.140625 0.01367188 C3.88545275 0.02546125 5.630237 0.04339676 7.375 0.0625 C7.375 0.3925 7.375 0.7225 7.375 1.0625 C6.45976562 1.12308594 5.54453125 1.18367188 4.6015625 1.24609375 C3.41304687 1.32988281 2.22453125 1.41367187 1 1.5 C-0.18335938 1.58121094 -1.36671875 1.66242187 -2.5859375 1.74609375 C-5.54018901 1.87334936 -5.54018901 1.87334936 -7.625 3.0625 C-8.285 2.4025 -8.945 1.7425 -9.625 1.0625 C-6.55966836 -0.47016582 -3.35745728 -0.04026471 0 0 Z " fill="#D3A663" transform="translate(210.625,45.9375)"/>
<path d="M0 0 C3 3 3 3 3.07421875 5.26171875 C2.94660156 6.06222656 2.81898438 6.86273438 2.6875 7.6875 C2.50767578 8.89986328 2.50767578 8.89986328 2.32421875 10.13671875 C2.21722656 10.75160156 2.11023438 11.36648437 2 12 C1.67 12 1.34 12 1 12 C0.67 8.04 0.34 4.08 0 0 Z " fill="#A78B64" transform="translate(233,40)"/>
<path d="M0 0 C0.66 0.33 1.32 0.66 2 1 C-0.31 3.31 -2.62 5.62 -5 8 C-5 5 -5 5 -2.5 2.3125 C-1.675 1.549375 -0.85 0.78625 0 0 Z " fill="#D5AA66" transform="translate(199,48)"/>
</svg>
